<svg width="54" height="46" viewBox="0 0 54 46" fill="none" xmlns="http://www.w3.org/2000/svg">
<rect x="9" width="36" height="36" rx="18" fill="#16254C"/>
<path d="M31.4831 13.4364C31.4831 16.1402 29.9117 18.4512 28.71 19.8378C30.2814 19.7222 32.6617 19.26 34.2332 17.6886C36.0358 15.886 36.3593 13.0204 36.4055 11.5183C36.4055 11.3103 36.2437 11.1485 36.0589 11.1716C34.9265 11.1947 33.0084 11.4027 31.3676 12.2809C31.4369 12.6507 31.4831 13.0435 31.4831 13.4364Z" fill="white"/>
<path d="M26.7217 7.54382C25.6818 8.62997 23.9023 10.8947 23.9023 13.4368C23.9023 15.9789 25.7049 18.2436 26.7217 19.3529C26.8604 19.4916 27.0915 19.4916 27.2301 19.3529C28.2701 18.2667 30.0495 15.9789 30.0495 13.4368C30.0495 10.8947 28.247 8.62997 27.2301 7.52071C27.0915 7.38205 26.8604 7.38205 26.7217 7.54382Z" fill="white"/>
<path d="M25.2436 19.8382C24.065 18.4747 22.4705 16.1406 22.4705 13.4368C22.4705 13.0208 22.5167 12.6279 22.586 12.2582C20.9452 11.38 19.0271 11.1951 17.8947 11.1489C17.6868 11.1489 17.525 11.3107 17.5481 11.4956C17.5943 12.9977 17.9179 15.8633 19.7204 17.6659C21.2919 19.2604 23.6491 19.7226 25.2436 19.8382Z" fill="white"/>
<path d="M35.2965 18.3965C35.2734 18.4196 35.2503 18.4427 35.2271 18.4658C32.9162 20.7999 29.3111 21.0772 27.7165 21.0772C27.3236 21.0772 26.6303 21.0772 26.2375 21.0772C24.666 21.0772 21.0609 20.7999 18.7268 18.4658C18.7037 18.4427 18.7037 18.4196 18.6806 18.4196C16.9704 19.0204 16.0229 19.7368 16.0229 20.3377C16.0229 21.6087 20.2983 23.4575 27.0001 23.4575C33.7019 23.4575 37.9772 21.6087 37.9772 20.3377C37.9772 19.7368 37.0066 18.9973 35.2965 18.3965Z" fill="white"/>
<rect x="0.294118" y="28.2941" width="53.4118" height="17.4118" rx="8.70588" fill="#D6BF90"/>
<rect x="0.294118" y="28.2941" width="53.4118" height="17.4118" rx="8.70588" stroke="#D6BF90" stroke-width="0.588235"/>
<path d="M12.68 35.6653C12.68 36.0253 12.6233 36.3419 12.51 36.6153C12.4033 36.8819 12.26 37.1053 12.08 37.2853C11.9 37.4653 11.6933 37.5986 11.46 37.6853C11.2267 37.7719 10.9867 37.8153 10.74 37.8153H9.9V40.6553H8.72V33.5753H10.68C10.9067 33.5753 11.14 33.6086 11.38 33.6753C11.62 33.7419 11.8333 33.8586 12.02 34.0253C12.2133 34.1853 12.37 34.3986 12.49 34.6653C12.6167 34.9319 12.68 35.2653 12.68 35.6653ZM11.54 35.6753C11.54 35.2953 11.45 35.0186 11.27 34.8453C11.09 34.6719 10.86 34.5853 10.58 34.5853H9.9V36.8353H10.58C10.86 36.8353 11.09 36.7386 11.27 36.5453C11.45 36.3453 11.54 36.0553 11.54 35.6753ZM16.6012 40.6553L15.5012 37.6353H14.8312V40.6553H13.6712V33.5753H15.6912C15.9845 33.5753 16.2545 33.6153 16.5012 33.6953C16.7478 33.7686 16.9578 33.8886 17.1312 34.0553C17.3112 34.2219 17.4512 34.4319 17.5512 34.6853C17.6512 34.9386 17.7012 35.2419 17.7012 35.5953C17.7012 35.8686 17.6645 36.1119 17.5912 36.3253C17.5245 36.5319 17.4378 36.7086 17.3312 36.8553C17.2245 37.0019 17.1045 37.1219 16.9712 37.2153C16.8445 37.3019 16.7178 37.3619 16.5912 37.3953L17.8612 40.6553H16.6012ZM16.5212 35.6553C16.5212 35.4419 16.4912 35.2653 16.4312 35.1253C16.3712 34.9853 16.2912 34.8753 16.1912 34.7953C16.0978 34.7153 15.9912 34.6586 15.8712 34.6253C15.7512 34.5919 15.6312 34.5753 15.5112 34.5753H14.8312V36.7553H15.5112C15.8045 36.7553 16.0445 36.6653 16.2312 36.4853C16.4245 36.2986 16.5212 36.0219 16.5212 35.6553ZM18.7981 40.6553V33.5753H21.9681V34.6353H19.9481V36.5153H21.8181V37.4953H19.9481V39.5853H22.0681V40.6553H18.7981ZM28.0136 40.6553L28.0336 35.2153H28.0036L26.5836 40.6553H25.6436L24.2536 35.2153H24.2236L24.2436 40.6553H23.1536V33.5753H24.7636L26.1236 38.7553H26.1636L27.4936 33.5753H29.1836V40.6553H28.0136ZM30.6145 40.6553V33.5753H31.8145V40.6553H30.6145ZM37.5913 38.1453C37.5913 38.5186 37.5513 38.8686 37.4713 39.1953C37.3913 39.5219 37.2613 39.8086 37.0813 40.0553C36.9013 40.2953 36.6679 40.4853 36.3813 40.6253C36.1013 40.7653 35.7579 40.8353 35.3513 40.8353C34.9446 40.8353 34.6013 40.7653 34.3213 40.6253C34.0413 40.4853 33.8113 40.2953 33.6313 40.0553C33.4579 39.8086 33.3313 39.5219 33.2513 39.1953C33.1779 38.8686 33.1413 38.5186 33.1413 38.1453V33.5753H34.3413V38.0353C34.3413 38.2553 34.3546 38.4686 34.3813 38.6753C34.4146 38.8753 34.4679 39.0519 34.5413 39.2053C34.6213 39.3586 34.7279 39.4819 34.8613 39.5753C34.9946 39.6619 35.1646 39.7053 35.3713 39.7053C35.5779 39.7053 35.7479 39.6619 35.8813 39.5753C36.0146 39.4819 36.1179 39.3586 36.1913 39.2053C36.2713 39.0519 36.3246 38.8753 36.3513 38.6753C36.3846 38.4686 36.4013 38.2553 36.4013 38.0353V33.5753H37.5913V38.1453ZM43.7851 40.6553L43.8051 35.2153H43.7751L42.3551 40.6553H41.4151L40.0251 35.2153H39.9951L40.0151 40.6553H38.9251V33.5753H40.5351L41.8951 38.7553H41.9351L43.2651 33.5753H44.9551V40.6553H43.7851Z" fill="#041236"/>
</svg>
