<svg width="50" height="46" viewBox="0 0 50 46" fill="none" xmlns="http://www.w3.org/2000/svg">
<rect x="7.41406" width="36" height="35.5045" rx="17.7523" fill="#16254C"/>
<path d="M21.3517 11.142C21.6473 10.8545 21.9661 10.603 22.3081 10.3874C23.2413 9.78887 24.304 9.47667 25.4132 9.47667C26.5235 9.47667 27.5973 9.78772 28.5183 10.3874C28.8603 10.5906 29.1913 10.8545 29.4869 11.142L29.7227 10.5547C29.8522 10.1954 29.9231 9.83602 29.9231 9.48904C29.9231 8.21898 29.0851 7.09381 27.8917 6.74568C27.4788 6.62552 27.1002 6.37398 26.8168 6.05057L25.8615 4.90068C25.6368 4.62556 25.1885 4.62556 24.9637 4.90068L24.0073 6.03821C23.7239 6.37398 23.3464 6.62552 22.9324 6.74453C22.1664 6.97361 21.5398 7.51263 21.1856 8.24252C20.8435 8.96121 20.8081 9.81239 21.1147 10.567L21.3517 11.142Z" fill="white"/>
<path d="M29.4747 19.7412C29.1791 20.0287 28.8603 20.2802 28.5183 20.4958C27.5851 21.0943 26.5224 21.4065 25.4132 21.4065C24.3029 21.4065 23.2291 21.0955 22.3081 20.4958C21.966 20.2926 21.635 20.0287 21.3395 19.7412L21.1037 20.3285C20.9742 20.6879 20.9033 21.0472 20.9033 21.3942C20.9033 22.6642 21.7413 23.7894 22.9346 24.1375C23.3475 24.2577 23.7262 24.5092 24.0095 24.8326L24.966 25.9825C25.0722 26.1263 25.2372 26.1981 25.4143 26.1981C25.5914 26.1981 25.7563 26.1263 25.8626 25.9825L26.8191 24.845C27.1024 24.5092 27.4799 24.2577 27.8939 24.1387C28.6611 23.9107 29.2876 23.3717 29.6419 22.6418C29.9839 21.9231 30.0194 21.0731 29.7127 20.3185L29.4747 19.7412Z" fill="white"/>
<path d="M35.8042 14.9872L34.6828 14.017C34.3518 13.7295 34.1039 13.3466 33.9865 12.9266C33.7618 12.1484 33.2305 11.5128 32.5109 11.1535C31.8025 10.8065 30.9645 10.7706 30.2206 11.0816L29.6538 11.3208C29.9372 11.6206 30.1852 11.944 30.3977 12.291C30.9877 13.2377 31.2955 14.3157 31.2955 15.4409C31.2955 16.5672 30.9889 17.6564 30.3977 18.5907C30.1973 18.9377 29.9372 19.2735 29.6538 19.5733L30.2328 19.8125C30.587 19.9439 30.9412 20.0157 31.2833 20.0157C32.5353 20.0157 33.6445 19.1657 33.9877 17.9551C34.1061 17.5363 34.3541 17.1522 34.6729 16.8647L35.8065 15.8945C35.9481 15.7867 36.019 15.6194 36.019 15.4397C36.0168 15.2623 35.9459 15.095 35.8042 14.9872Z" fill="white"/>
<path d="M20.4304 18.5914C19.8404 17.6447 19.5326 16.5667 19.5326 15.4416C19.5326 14.3152 19.8392 13.226 20.4304 12.2917C20.6307 11.9436 20.8909 11.609 21.1743 11.3091L20.5953 11.0699C18.9891 10.4344 17.2887 11.381 16.8404 12.9262C16.722 13.345 16.474 13.7291 16.1552 14.0165L15.0216 14.9868C14.8799 15.0946 14.8091 15.2619 14.8091 15.4415C14.8091 15.6212 14.8799 15.7885 15.0216 15.8963L16.143 16.8665C16.474 17.154 16.722 17.5369 16.8393 17.9569C17.064 18.7351 17.5954 19.3707 18.3149 19.7301C18.6924 19.9221 19.1174 20.0175 19.5425 20.0175C19.8968 20.0175 20.2632 19.9457 20.6052 19.8019L21.172 19.5628C20.8908 19.2629 20.6429 18.9395 20.4304 18.5914Z" fill="white"/>
<path d="M30.0181 14.4834C30.0181 14.4598 30.0059 14.4351 30.0059 14.4115C29.9826 14.3161 29.9583 14.2195 29.9229 14.1117C29.9107 14.0398 29.8874 13.968 29.852 13.8961C29.8166 13.7883 29.7812 13.6681 29.7336 13.5603C29.686 13.4525 29.6395 13.3447 29.5797 13.2369C29.5675 13.2133 29.5564 13.201 29.5443 13.1774C29.4856 13.0572 29.4148 12.9382 29.3439 12.8304C29.3317 12.8068 29.3085 12.7821 29.2963 12.7585C29.2487 12.6867 29.2022 12.6272 29.1546 12.5665C29.107 12.4947 29.0605 12.4351 28.9897 12.3633C28.931 12.279 28.8602 12.196 28.7771 12.1117L28.6941 12.0275C28.6111 11.9556 28.5402 11.8838 28.4461 11.8119C28.4107 11.776 28.3753 11.7524 28.3399 11.7165C28.2568 11.6446 28.1506 11.5727 28.0565 11.5009C28.0443 11.5009 28.0443 11.4885 28.0332 11.4885C28.01 11.4761 27.9978 11.4649 27.9746 11.4526L27.9757 11.4402C27.9524 11.4279 27.9281 11.4166 27.9048 11.3919C27.834 11.356 27.751 11.3077 27.6801 11.2718C27.6679 11.2594 27.6569 11.2594 27.6447 11.2482C27.6214 11.2358 27.5971 11.2246 27.5738 11.2246C27.5384 11.1887 27.4908 11.1651 27.4443 11.1527C27.3381 11.0932 27.2318 11.0449 27.1255 11.009C26.9838 10.9495 26.8543 10.9012 26.7126 10.8653C25.9455 10.662 25.1418 10.6373 24.3747 10.8058C24.2562 10.8293 24.1499 10.8653 24.0326 10.9012C23.9263 10.9248 23.8079 10.9607 23.7016 11.009C23.5477 11.0685 23.395 11.1404 23.2533 11.2246C23.2057 11.237 23.1592 11.2605 23.1116 11.2841C23.0396 11.3212 22.9688 11.3683 22.8979 11.4166C22.8747 11.4402 22.8625 11.4526 22.8393 11.4526C22.8149 11.4761 22.7917 11.4885 22.7684 11.5009C22.7087 11.5604 22.6378 11.5963 22.5791 11.6446C22.5083 11.7041 22.4374 11.7524 22.3788 11.8119C22.2836 11.8838 22.2127 11.9556 22.1308 12.0275L22.0478 12.1117C21.9648 12.1948 21.8939 12.279 21.8352 12.3633C21.7998 12.3992 21.7644 12.4351 21.7411 12.4711C21.6703 12.5542 21.5995 12.662 21.5286 12.7585C21.5286 12.7709 21.5164 12.7709 21.5164 12.7821C21.5043 12.7945 21.4932 12.8181 21.481 12.8416H21.4688C21.3858 12.973 21.315 13.1055 21.2441 13.2369C21.1854 13.3571 21.1257 13.4885 21.0792 13.6086C21.0559 13.6681 21.0316 13.7164 21.0205 13.7647C20.9973 13.8006 20.9851 13.8366 20.9851 13.8725C20.9618 13.932 20.9375 13.9803 20.9264 14.0286C20.9142 14.0769 20.891 14.1241 20.891 14.1723C20.8434 14.3037 20.8201 14.4239 20.7969 14.544C20.7969 14.5676 20.7969 14.58 20.7847 14.5923C20.7847 14.6406 20.7725 14.6878 20.7725 14.7237C20.7371 14.9629 20.7139 15.2032 20.7139 15.4424C20.7139 15.7299 20.7371 16.0173 20.7847 16.3048C20.7969 16.3172 20.7969 16.3407 20.7969 16.3643C20.8201 16.4238 20.8323 16.4957 20.8556 16.5676C20.8677 16.6395 20.891 16.7237 20.9142 16.8068C20.9618 16.9864 21.0327 17.1661 21.1035 17.3458C21.1035 17.3581 21.1157 17.3694 21.1268 17.3817V17.3941C21.15 17.4424 21.1622 17.4783 21.1854 17.5255C21.1976 17.549 21.1976 17.5614 21.2087 17.585C21.2209 17.6085 21.2319 17.6209 21.2441 17.6445C21.2674 17.704 21.3028 17.7523 21.3382 17.8006C21.3736 17.8848 21.4323 17.9679 21.4799 18.0521C21.4921 18.0757 21.5153 18.1004 21.5275 18.124C21.5751 18.1958 21.6216 18.2554 21.6692 18.316C21.7168 18.3879 21.7633 18.4474 21.8341 18.5193C21.8928 18.6035 21.9637 18.6866 22.0467 18.7708L22.1297 18.855C22.2127 18.9392 22.2946 19.0111 22.3777 19.0706C22.5315 19.2144 22.6843 19.3222 22.8504 19.43C22.8858 19.4535 22.9212 19.4782 22.9566 19.5018C23.0042 19.5378 23.0507 19.5613 23.0983 19.5861C23.1216 19.5984 23.1459 19.6096 23.1692 19.622C23.24 19.6703 23.3109 19.7062 23.3817 19.7298C23.488 19.7893 23.6064 19.8252 23.7127 19.8612C23.7603 19.8848 23.8068 19.8971 23.8544 19.9095C24.3625 20.0891 24.8817 20.2093 25.413 20.2093C25.7795 20.2093 26.1337 20.1498 26.4879 20.0532C26.571 20.0409 26.6418 20.0173 26.7237 19.9937C26.7359 19.9937 26.7359 19.9937 26.747 19.9813C26.8654 19.9578 26.9717 19.9218 27.089 19.8735C27.2075 19.8252 27.3248 19.7781 27.4432 19.7298C27.5141 19.7062 27.5849 19.6703 27.6558 19.622C27.668 19.622 27.679 19.6096 27.6912 19.5984C27.7853 19.5501 27.8805 19.503 27.9746 19.4311C28.1395 19.3233 28.2934 19.2155 28.4473 19.0718C28.5303 19.0122 28.6122 18.9404 28.6953 18.8561L28.7783 18.7719C28.8613 18.6877 28.9322 18.6046 28.9908 18.5204C29.0262 18.4845 29.0617 18.4485 29.0849 18.4126C29.1558 18.3284 29.2266 18.2206 29.2975 18.1251C29.2975 18.1128 29.3096 18.1128 29.3096 18.1015C29.3218 18.0892 29.3329 18.0779 29.3451 18.0532V18.0409H29.3572C29.4403 17.9095 29.5111 17.777 29.582 17.6456C29.6406 17.5255 29.7004 17.3941 29.7469 17.2739C29.7591 17.2503 29.7701 17.238 29.7701 17.2256C29.7934 17.1773 29.8056 17.1414 29.8177 17.1055C29.8177 17.0931 29.8299 17.0819 29.8299 17.0695C29.8532 16.9977 29.8775 16.9258 29.9008 16.8539C29.9594 16.6619 30.007 16.4587 30.0425 16.2666C30.0657 16.1465 30.0779 16.0274 30.0901 15.9073C30.1022 15.7512 30.1133 15.5962 30.1133 15.4401C30.1133 15.284 30.1011 15.1291 30.0901 14.973C30.0779 14.8528 30.0668 14.7338 30.0425 14.6137C30.0425 14.6013 30.0425 14.5901 30.0303 14.5654V14.5171C30.0181 14.507 30.0181 14.4946 30.0181 14.4834Z" fill="white"/>
<rect y="28" width="50" height="18" rx="9" fill="#D6BF90"/>
<path d="M17.72 40.6553V33.5753H18.93V39.5453H20.88V40.6553H17.72ZM21.6555 40.6553V33.5753H22.8555V40.6553H21.6555ZM26.8523 40.6553H25.3323L23.6023 33.5753H24.9423L26.1223 39.2553H26.1523L27.3323 33.5753H28.6123L26.8523 40.6553ZM29.3606 40.6553V33.5753H32.5306V34.6353H30.5106V36.5153H32.3806V37.4953H30.5106V39.5853H32.6306V40.6553H29.3606Z" fill="#16254C"/>
</svg>
