<svg width="61" height="18" viewBox="0 0 61 18" fill="none" xmlns="http://www.w3.org/2000/svg">
<rect width="61" height="17.9216" rx="8.96081" fill="#D6BF90"/>
<path d="M11.5 6.90621C11.24 6.59288 10.9133 6.43621 10.52 6.43621C10.4067 6.43621 10.2967 6.45621 10.19 6.49621C10.0833 6.52954 9.98667 6.58621 9.9 6.66621C9.81333 6.74621 9.74333 6.84954 9.69 6.97621C9.64333 7.10288 9.62 7.25288 9.62 7.42621C9.62 7.72621 9.71 7.95954 9.89 8.12621C10.07 8.28621 10.3067 8.43954 10.6 8.58621C10.7733 8.67288 10.95 8.77288 11.13 8.88621C11.31 8.99954 11.4733 9.13621 11.62 9.29621C11.7667 9.45621 11.8867 9.64621 11.98 9.86621C12.0733 10.0862 12.12 10.3462 12.12 10.6462C12.12 10.9929 12.0633 11.2995 11.95 11.5662C11.8433 11.8329 11.6967 12.0595 11.51 12.2462C11.33 12.4262 11.1167 12.5629 10.87 12.6562C10.6233 12.7495 10.3633 12.7962 10.09 12.7962C9.69667 12.7962 9.33333 12.7195 9 12.5662C8.66667 12.4129 8.4 12.2195 8.2 11.9862L8.85 11.1062C9.00333 11.2929 9.18667 11.4395 9.4 11.5462C9.62 11.6529 9.84333 11.7062 10.07 11.7062C10.3233 11.7062 10.5333 11.6195 10.7 11.4462C10.8667 11.2729 10.95 11.0295 10.95 10.7162C10.95 10.4095 10.85 10.1662 10.65 9.98621C10.45 9.80621 10.1967 9.63954 9.89 9.48621C9.69667 9.39288 9.51333 9.28954 9.34 9.17621C9.17333 9.06288 9.02333 8.92954 8.89 8.77621C8.76333 8.61621 8.66 8.43288 8.58 8.22621C8.50667 8.01288 8.47 7.75954 8.47 7.46621C8.47 7.09954 8.52667 6.78621 8.64 6.52621C8.76 6.25954 8.91333 6.03954 9.1 5.86621C9.29333 5.69288 9.51 5.56621 9.75 5.48621C9.99 5.39954 10.2333 5.35621 10.48 5.35621C10.84 5.35621 11.16 5.41621 11.44 5.53621C11.7267 5.64954 11.9667 5.81954 12.16 6.04621L11.5 6.90621ZM17.5522 10.1062C17.5522 10.4795 17.5122 10.8295 17.4322 11.1562C17.3522 11.4829 17.2222 11.7695 17.0422 12.0162C16.8622 12.2562 16.6289 12.4462 16.3422 12.5862C16.0622 12.7262 15.7189 12.7962 15.3122 12.7962C14.9055 12.7962 14.5622 12.7262 14.2822 12.5862C14.0022 12.4462 13.7722 12.2562 13.5922 12.0162C13.4189 11.7695 13.2922 11.4829 13.2122 11.1562C13.1389 10.8295 13.1022 10.4795 13.1022 10.1062V5.53621H14.3022V9.99621C14.3022 10.2162 14.3155 10.4295 14.3422 10.6362C14.3755 10.8362 14.4289 11.0129 14.5022 11.1662C14.5822 11.3195 14.6889 11.4429 14.8222 11.5362C14.9555 11.6229 15.1255 11.6662 15.3322 11.6662C15.5389 11.6662 15.7089 11.6229 15.8422 11.5362C15.9755 11.4429 16.0789 11.3195 16.1522 11.1662C16.2322 11.0129 16.2855 10.8362 16.3122 10.6362C16.3455 10.4295 16.3622 10.2162 16.3622 9.99621V5.53621H17.5522V10.1062ZM22.846 7.62621C22.846 7.98621 22.7893 8.30288 22.676 8.57621C22.5693 8.84288 22.426 9.06621 22.246 9.24621C22.066 9.42621 21.8593 9.55954 21.626 9.64621C21.3927 9.73288 21.1527 9.77621 20.906 9.77621H20.066V12.6162H18.886V5.53621H20.846C21.0727 5.53621 21.306 5.56954 21.546 5.63621C21.786 5.70288 21.9993 5.81954 22.186 5.98621C22.3793 6.14621 22.536 6.35954 22.656 6.62621C22.7827 6.89288 22.846 7.22621 22.846 7.62621ZM21.706 7.63621C21.706 7.25621 21.616 6.97954 21.436 6.80621C21.256 6.63288 21.026 6.54621 20.746 6.54621H20.066V8.79621H20.746C21.026 8.79621 21.256 8.69954 21.436 8.50621C21.616 8.30621 21.706 8.01621 21.706 7.63621ZM27.7972 7.62621C27.7972 7.98621 27.7405 8.30288 27.6272 8.57621C27.5205 8.84288 27.3772 9.06621 27.1972 9.24621C27.0172 9.42621 26.8105 9.55954 26.5772 9.64621C26.3439 9.73288 26.1039 9.77621 25.8572 9.77621H25.0172V12.6162H23.8372V5.53621H25.7972C26.0239 5.53621 26.2572 5.56954 26.4972 5.63621C26.7372 5.70288 26.9505 5.81954 27.1372 5.98621C27.3305 6.14621 27.4872 6.35954 27.6072 6.62621C27.7339 6.89288 27.7972 7.22621 27.7972 7.62621ZM26.6572 7.63621C26.6572 7.25621 26.5672 6.97954 26.3872 6.80621C26.2072 6.63288 25.9772 6.54621 25.6972 6.54621H25.0172V8.79621H25.6972C25.9772 8.79621 26.2072 8.69954 26.3872 8.50621C26.5672 8.30621 26.6572 8.01621 26.6572 7.63621ZM33.5784 9.06621C33.5784 9.62621 33.5184 10.1362 33.3984 10.5962C33.285 11.0495 33.1184 11.4395 32.8984 11.7662C32.6784 12.0929 32.4084 12.3462 32.0884 12.5262C31.775 12.7062 31.4217 12.7962 31.0284 12.7962C30.6284 12.7962 30.2717 12.7062 29.9584 12.5262C29.645 12.3462 29.3784 12.0929 29.1584 11.7662C28.9384 11.4395 28.7684 11.0495 28.6484 10.5962C28.535 10.1362 28.4784 9.62621 28.4784 9.06621C28.4784 8.50621 28.535 7.99954 28.6484 7.54621C28.7617 7.09288 28.9284 6.70288 29.1484 6.37621C29.3684 6.04954 29.635 5.79954 29.9484 5.62621C30.2684 5.44621 30.6284 5.35621 31.0284 5.35621C31.4217 5.35621 31.775 5.44621 32.0884 5.62621C32.4084 5.79954 32.6784 6.04954 32.8984 6.37621C33.1184 6.70288 33.285 7.09288 33.3984 7.54621C33.5184 7.99954 33.5784 8.50621 33.5784 9.06621ZM32.3384 9.06621C32.3384 8.70621 32.3084 8.36954 32.2484 8.05621C32.195 7.73621 32.1117 7.46288 31.9984 7.23621C31.8917 7.00288 31.755 6.81954 31.5884 6.68621C31.4284 6.55288 31.2417 6.48621 31.0284 6.48621C30.8084 6.48621 30.615 6.55288 30.4484 6.68621C30.2884 6.81954 30.1517 7.00288 30.0384 7.23621C29.9317 7.46288 29.8517 7.73621 29.7984 8.05621C29.745 8.36954 29.7184 8.70621 29.7184 9.06621C29.7184 9.42621 29.745 9.76621 29.7984 10.0862C29.8517 10.3995 29.9317 10.6729 30.0384 10.9062C30.1517 11.1395 30.2884 11.3229 30.4484 11.4562C30.615 11.5895 30.8084 11.6562 31.0284 11.6562C31.2484 11.6562 31.4384 11.5895 31.5984 11.4562C31.765 11.3229 31.9017 11.1395 32.0084 10.9062C32.1217 10.6729 32.205 10.3995 32.2584 10.0862C32.3117 9.76621 32.3384 9.42621 32.3384 9.06621ZM37.6266 12.6162L36.5266 9.59621H35.8566V12.6162H34.6966V5.53621H36.7166C37.0099 5.53621 37.2799 5.57621 37.5266 5.65621C37.7732 5.72954 37.9832 5.84954 38.1566 6.01621C38.3366 6.18288 38.4766 6.39288 38.5766 6.64621C38.6766 6.89954 38.7266 7.20288 38.7266 7.55621C38.7266 7.82954 38.6899 8.07288 38.6166 8.28621C38.5499 8.49288 38.4632 8.66954 38.3566 8.81621C38.2499 8.96288 38.1299 9.08288 37.9966 9.17621C37.8699 9.26288 37.7432 9.32288 37.6166 9.35621L38.8866 12.6162H37.6266ZM37.5466 7.61621C37.5466 7.40288 37.5166 7.22621 37.4566 7.08621C37.3966 6.94621 37.3166 6.83621 37.2166 6.75621C37.1232 6.67621 37.0166 6.61954 36.8966 6.58621C36.7766 6.55288 36.6566 6.53621 36.5366 6.53621H35.8566V8.71621H36.5366C36.8299 8.71621 37.0699 8.62621 37.2566 8.44621C37.4499 8.25954 37.5466 7.98288 37.5466 7.61621ZM41.5349 6.55621V12.6162H40.3549V6.55621H39.0249V5.53621H42.8649V6.55621H41.5349ZM43.5638 12.6162V5.53621H46.7338V6.59621H44.7138V8.47621H46.5838V9.45621H44.7138V11.5462H46.8338V12.6162H43.5638ZM50.8492 12.6162L49.7492 9.59621H49.0792V12.6162H47.9192V5.53621H49.9392C50.2326 5.53621 50.5026 5.57621 50.7492 5.65621C50.9959 5.72954 51.2059 5.84954 51.3792 6.01621C51.5592 6.18288 51.6992 6.39288 51.7992 6.64621C51.8992 6.89954 51.9492 7.20288 51.9492 7.55621C51.9492 7.82954 51.9126 8.07288 51.8392 8.28621C51.7726 8.49288 51.6859 8.66954 51.5792 8.81621C51.4726 8.96288 51.3526 9.08288 51.2192 9.17621C51.0926 9.26288 50.9659 9.32288 50.8392 9.35621L52.1092 12.6162H50.8492ZM50.7692 7.61621C50.7692 7.40288 50.7392 7.22621 50.6792 7.08621C50.6192 6.94621 50.5392 6.83621 50.4392 6.75621C50.3459 6.67621 50.2392 6.61954 50.1192 6.58621C49.9992 6.55288 49.8792 6.53621 49.7592 6.53621H49.0792V8.71621H49.7592C50.0526 8.71621 50.2926 8.62621 50.4792 8.44621C50.6726 8.25954 50.7692 7.98288 50.7692 7.61621Z" fill="#041236"/>
</svg>
